<svg xmlns="http://www.w3.org/2000/svg" version="1.1" xmlns:xlink="http://www.w3.org/1999/xlink" xmlns:svgjs="http://svgjs.dev/svgjs" width="128" height="128" viewBox="0 0 128 128"><g transform="matrix(0.8046875,0,0,0.8046875,12.451947177883056,4.940237548828122)"><svg viewBox="0 0 84 96" data-background-color="#ffffff" preserveAspectRatio="xMidYMid meet" height="146" width="128" xmlns="http://www.w3.org/2000/svg" xmlns:xlink="http://www.w3.org/1999/xlink"><g id="tight-bounds" transform="matrix(1,0,0,1,0.03918870929925333,0.25950000000000273)"><svg viewBox="0 0 83.92162258140151 95.481" height="95.481" width="83.92162258140151"><g><svg viewBox="0 0 83.92162258140151 95.481" height="95.481" width="83.92162258140151"><g><svg viewBox="0 0 83.92162258140151 95.481" height="95.481" width="83.92162258140151"><g id="textblocktransform"><svg viewBox="0 0 83.92162258140151 95.481" height="95.481" width="83.92162258140151" id="textblock"><g><svg viewBox="0 0 83.92162258140151 95.481" height="95.481" width="83.92162258140151"><g><svg viewBox="0 0 83.92162258140151 95.481" height="95.481" width="83.92162258140151"><g><svg xmlns="http://www.w3.org/2000/svg" xmlns:xlink="http://www.w3.org/1999/xlink" version="1.1" x="0" y="0" viewBox="5.040590151971592 9.909060586512311 402.32960508100535 457.74654780391324" enable-background="new 0 0 407.371 467.656" xml:space="preserve" id="icon-0" width="83.92162258140151" height="95.481" class="icon-icon-0" data-fill-palette-color="accent"><g fill="#dc2626" data-fill-palette-color="accent"><path fill-rule="evenodd" clip-rule="evenodd" d="M233.891 219.266C238.618 208.804 229.026 204.085 221.251 208.913 210.394 215.644 211.654 230.854 218.249 240.027 222.949 246.566 230.384 251.402 239.213 251.605 277.957 252.454 288.827 199.247 250.259 184.942 189.798 162.513 136.581 234.161 179.998 289.812 179.998 289.812 158.436 228.497 207.738 213.125 213.767 201.806 227.007 196.6 235.473 202.872 248.626 212.596 231.566 224.403 233.891 219.266" fill="#dc2626" data-fill-palette-color="accent"></path><path fill-rule="evenodd" clip-rule="evenodd" d="M206.337 218.897C206.575 219.193 201.768 228.297 212.126 243.162 210.757 243.448 177.332 282.365 229.652 330.245 186.008 304.229 177.212 271.575 181.346 251.006 186.027 227.689 206.215 218.743 206.337 218.897" fill="#dc2626" data-fill-palette-color="accent"></path><path fill-rule="evenodd" clip-rule="evenodd" d="M216.575 248.765C217.274 248.498 224.488 256.921 237.016 257.556 237.016 257.556 210.642 307.339 282.008 351.212 180.316 318.297 205.04 253.158 216.575 248.765" fill="#dc2626" data-fill-palette-color="accent"></path><path fill-rule="evenodd" clip-rule="evenodd" d="M242.93 257.775S252.477 258.146 262.605 252.24C262.605 252.24 224.139 318.02 323.199 357.506 240.355 343.125 229.738 288.184 242.93 257.775" fill="#dc2626" data-fill-palette-color="accent"></path><path fill-rule="evenodd" clip-rule="evenodd" d="M325.289 238.679C326.586 238.842 313.77 231.017 297.527 234.321 282.256 237.425 263.632 250.74 260.67 278.106 256.339 318.03 303.116 348.941 340 355.511 366.249 360.193 389.7 373.534 397.127 382.902 370.916 337.867 292.283 338.38 279.408 290.297 272.339 263.889 293.962 234.609 325.289 238.679" fill="#dc2626" data-fill-palette-color="accent"></path><path fill-rule="evenodd" clip-rule="evenodd" d="M324.689 263.222C324.433 263.035 317.04 251.551 304.635 263.016 304.635 263.016 296.313 272.848 307.197 279.787 313.268 284.175 323.167 283.46 329.106 279.221 345.068 267.809 337.625 243.151 318.631 242.713 287.218 241.987 274.752 278.97 290.722 302.039 315.331 337.543 362.397 335.971 389.243 367.25 389.243 367.25 388.063 332.255 361.604 322.619 361.604 322.619 317.997 308.311 318.677 286.805 318.677 286.805 306.654 287.272 300.174 279.5 289.862 267.103 304.623 254.079 311.698 254.031 321.595 253.958 327.104 265.112 324.689 263.222" fill="#dc2626" data-fill-palette-color="accent"></path><path fill-rule="evenodd" clip-rule="evenodd" d="M240.931 177.274S224.808 164.111 206.657 162.878C170.868 160.428 138.817 201.288 142.198 237.118 144.237 258.722 158.681 279.348 170.248 286.097 146.698 253.259 160.565 214.499 173.229 200.509 196.788 174.477 220.392 173.924 240.931 177.274" fill="#dc2626" data-fill-palette-color="accent"></path><path fill-rule="evenodd" clip-rule="evenodd" d="M251.094 179.742S240.467 167.089 245.14 146.389C245.14 146.389 201.128 108.646 153.406 157.07 153.406 157.07 101.152 210.843 144.73 266.499 128.688 232.516 138.357 198.298 160.362 176.416 183.065 153.841 222.441 146.36 251.094 179.742" fill="#dc2626" data-fill-palette-color="accent"></path><path fill-rule="evenodd" clip-rule="evenodd" d="M247.168 140.088S254.174 127.505 265.72 126.538C217.683 54.378 43.259 178.08 146.84 289.962 106.262 239.808 115.264 174.466 166.053 138.882 187.645 123.752 220.885 119.757 247.168 140.088" fill="#dc2626" data-fill-palette-color="accent"></path><path fill-rule="evenodd" clip-rule="evenodd" d="M272.138 125.153C272.701 126.127 273.915 126.485 275.255 127.128 288.049 133.237 290.065 144.831 280.98 154.316 290.927 123.571 242.487 124.758 249.858 160.847 254.652 184.28 277.927 193.05 300.954 184.675 346.589 167.946 330.189 117.467 298.4 95.673 279.288 82.56 232.377 61.674 162.896 104.378 162.896 104.378 90.417 145.271 101.963 229.62 108.014 273.803 147.459 314.552 184.167 335.104 184.167 335.104 86.011 265.46 112.903 186.936 123.034 155.985 152.199 121.271 187.004 106.992 216.869 94.739 253.907 93.613 272.138 125.153" fill="#dc2626" data-fill-palette-color="accent"></path><path fill-rule="evenodd" clip-rule="evenodd" d="M159.854 96.941C80.434 156.854 67.978 251.357 157.036 326.106 69.558 294.584 61.33 168.381 119.653 99.655 119.653 99.655 154.448 86.626 129.579 68.803 129.579 68.803 140.121 80.712 128.869 89.431 120.401 96.002 107.432 95.636 99.285 88.168 77.246 67.978 101.575 35.85 128.285 36.467 140.309 36.747 154.083 46.067 159.594 57.466 167.882 74.615 160.091 96.759 159.854 96.941" fill="#dc2626" data-fill-palette-color="accent"></path><path fill-rule="evenodd" clip-rule="evenodd" d="M258.257 362.005C254.47 357.812 146.261 350.886 103.546 292.441 69.857 246.347 63.371 170.761 112.353 99.727 108.392 101.408 99.31 95.974 100.001 95.427 61.935 129.944 50.454 185.945 56.539 235.303 73.74 374.957 261.933 366.086 258.257 362.005" fill="#dc2626" data-fill-palette-color="accent"></path><path fill-rule="evenodd" clip-rule="evenodd" d="M88.285 80.281S89.408 87.073 96.638 92.417C97.636 92.539 89.237 98.459 79.771 110.917 83.754 97.824 86.988 80.135 88.285 80.281" fill="#dc2626" data-fill-palette-color="accent"></path><path fill-rule="evenodd" clip-rule="evenodd" d="M28.465 45.735C30.875 22.705 55.007 21.64 68.109 37.005 78.963 49.714 81.36 73.798 65.79 105.29 46.745 143.839 28.658 208.653 48.864 241.915 48.864 241.915 42.712 173.208 69.958 117.519 81.573 92.19 99.06 51.968 82.681 27.424 67.372 4.483 38.174 5.652 19.797 21.822 5.299 34.577-3.585 68.048 17.787 76.721 46.056 88.189 57.148 54.535 38.85 46.165 36.191 44.94 32.605 45.082 28.465 45.735" fill="#dc2626" data-fill-palette-color="accent"></path><path fill-rule="evenodd" clip-rule="evenodd" d="M35.305 40.36C34.675 40.558 51.201 23.525 65.074 41.126 80.703 61.009 67.217 88.912 53.68 119.855 43.891 142.247 36.052 169.528 35.612 198.565 35.612 198.565 23.738 118.474 39.567 82.789 67.628 62.125 44.743 37.441 35.305 40.36" fill="#dc2626" data-fill-palette-color="accent"></path><path fill-rule="evenodd" clip-rule="evenodd" d="M16.314 82.926S8.75 108.683 9.602 146.87C10.424 183.874 19.202 232.818 47.572 264.674 27.563 211.673 16.901 139.258 33.312 85.411 23.765 87.912 16.007 82.673 16.314 82.926" fill="#dc2626" data-fill-palette-color="accent"></path><path fill-rule="evenodd" clip-rule="evenodd" d="M407.367 419.319C360.969 345.903 236.685 380.778 180.721 363.089 167.86 359.982 159.834 373.166 180.027 380.492 186.208 382.731 218.366 387.103 264.676 382.024 363.227 371.205 407.805 420.018 407.367 419.319" fill="#dc2626" data-fill-palette-color="accent"></path><path fill-rule="evenodd" clip-rule="evenodd" d="M400.941 422.463S343.083 382.381 233.726 417.416C221.502 421.342 207.936 425.93 193.6 427.473 166.228 430.411 138.029 424.719 124.924 399.546 119.125 388.406 121.254 366.425 138.664 356.769 146.571 352.384 159.067 351.81 162.724 363.625 162.724 363.625 163.976 372.625 154.723 375.494 138.798 386.38 148.621 401.011 161.667 406.904 196.352 422.576 251.069 391.456 289.38 389.372 324.342 387.471 363.916 396.631 400.941 422.463" fill="#dc2626" data-fill-palette-color="accent"></path><path fill-rule="evenodd" clip-rule="evenodd" d="M255.866 387.335S201.224 396.07 179.035 385.888C172.166 382.731 166.438 380.732 161.204 381.797 150.718 383.924 150.158 393.028 157.43 398.702 181.229 417.267 234.489 395.924 255.866 387.335" fill="#dc2626" data-fill-palette-color="accent"></path><path fill-rule="evenodd" clip-rule="evenodd" d="M390.327 424.828S327.173 391.243 284.878 417.277C269.008 427.059 260.065 448.025 279.788 462.795 279.788 462.795 300.437 477.282 319.76 456.235 331.316 439.84 310.803 426.407 297.408 438.884 293.795 442.247 291.321 447.067 295.916 452.861 271.667 438.433 290.322 421.496 315.871 418.443 342.415 415.27 379.315 420.504 390.327 424.828" fill="#dc2626" data-fill-palette-color="accent"></path><path fill-rule="evenodd" clip-rule="evenodd" d="M299.489 432.172S312.436 426.042 321.275 433.525C321.275 433.525 336.263 423.701 355.864 425.956 346.29 418.345 299.262 420.475 299.489 432.172" fill="#dc2626" data-fill-palette-color="accent"></path></g></svg></g></svg></g></svg></g></svg></g></svg></g></svg></g><defs></defs></svg><rect width="83.92162258140151" height="95.481" fill="none" stroke="none" visibility="hidden"></rect></g></svg></g></svg>